{"title":"Ex.Machina.2015.1080p.BRRIP.x265.HEVC.10bit.DTS.5.1-ROIMEZ","uid":15404876,"size":4566463000,"categoryP":"video","categoryS":"hd___movies","magnet":"?xt=urn:btih:9cf4662fe71c7fef72436cf2116fe06058aca0af&amp;dn=Ex.Machina.2015.1080p.BRRIP.x265.HEVC.10bit.DTS.5.1-ROIMEZ&amp;tr=udp%3A%2F%2Ftracker.leechers-paradise.org%3A6969&amp;tr=udp%3A%2F%2Fzer0day.ch%3A1337&amp;tr=udp%3A%2F%2Fopen.demonii.com%3A1337&amp;tr=udp%3A%2F%2Ftracker.coppersurfer.tk%3A6969&amp;tr=udp%3A%2F%2Fexodus.desync.com%3A6969","seeders":2,"leechers":2,"uploader":"Pirulo233","files":7,"time":1469492143,"description":"Nota: Vuelvo a compartir esta película, la cual había subido hace un tiempo en otra página. En esta vez agregué subtitulos(srt) los cuales aparecen en la descripción del torrent. Las &quot;screencaps&quot; estan en una carpeta aparte, por si quieren descargarla antes de bajar la película. Sigan compartiendo el torrent. Saludos.\r\n\r\nNote: I'll be back to share this film, which had gone up a while ago on another page.In this time I added subtitle (srt) which appear in the description of torrent. The screencaps are in a separate folder, in case you want to download it before downloading the movie. Keep sharing the torrent. Saludos.\r\n\r\nComplete name: Ex.Machina.2015.1080p.BRRIP.x265.HEVC.10bit.DTS.5.1-ROIMEZ\r\nA young programmer is selected to participate in a ground-breaking experiment in synthetic intelligence by evaluating the human qualities of a breath-taking humanoid A.I.\r\n\r\nGenres: Drama, Mystery, Sci-Fi  \r\nCast: Alicia Vikander, Domhnall Gleeson, Oscar Isaac  \r\n\r\nRelease date: 27 February 2015    \r\nLanguage: English\r\nSubtitles: English &amp; Spanish\r\nSource: Ex.Machina.2015.Bluray.1080p.DTS-HD.x264-Grym \r\n\r\nGeneral\r\nFormat                      : Matroska\r\nFormat version              : Version 4 / Version 2\r\nFile size                   : 4.25 GiB\r\nDuration                    : 1h 48mn\r\nOverall bit rate            : 5 630 Kbps\r\nEncoded date                : UTC 2016-06-16 13:02:19\r\nWriting application         : mkvmerge v9.0.1 ('Obstacles') 64bit\r\nWriting library             : libebml v1.3.3 + libmatroska v1.4.4\r\n\r\nVideo\r\nID                          : 1\r\nFormat                      : HEVC\r\nFormat/Info                 : High Efficiency Video Coding\r\nFormat profile              : Main   @Main\r\nCodec ID                    : V_MPEGH/ISO/HEVC\r\nDuration                    : 1h 48mn\r\nEncoding settings[Bit rate] : 2 pass/4 119 Kbps\r\nWidth                       : 1 920 pixels\r\nHeight                      : 804 pixels\r\nDisplay aspect ratio        : 2.40:1\r\nFrame rate mode             : Constant\r\nFrame rate                  : 23.976 (24000/1001) fps\r\nOriginal frame rate         : 23.976 (23976/1000) fps\r\nColor space                 : YUV\r\nChroma subsampling          : 4:2:0\r\nBit depth                   : 10 bits\r\nBits/(Pixel*Frame)          : 0.111\r\nStream size                 : 3.11 GiB (73%)\r\nWriting library             : x265 1.9+140\r\nDefault                     : Yes\r\nForced                      : No\r\n\r\nAudio\r\nID                          : 2\r\nFormat                      : DTS\r\nFormat/Info                 : Digital Theater Systems\r\nMode                        : 16\r\nFormat settings, Endianness : Big\r\nCodec ID                    : A_DTS\r\nDuration                    : 1h 48mn\r\nBit rate mode               : Constant\r\nBit rate                    : 1 509 Kbps\r\nChannel(s)                  : 6 channels\r\nChannel positions           : Front: L C R, Side: L R, LFE\r\nSampling rate               : 48.0 KHz\r\nFrame rate                  : 93.750 fps (512 spf)\r\nBit depth                   : 24 bits\r\nCompression mode            : Lossy\r\nStream size                 : 1.14 GiB (27%)\r\nDefault                     : Yes\r\nForced                      : No","torrent":{"xt":"urn:btih:9cf4662fe71c7fef72436cf2116fe06058aca0af","amp;dn":"Ex.Machina.2015.1080p.BRRIP.x265.HEVC.10bit.DTS.5.1-ROIMEZ","amp;tr":["udp%3A%2F%2Ftracker.leechers-paradise.org%3A6969","udp%3A%2F%2Fzer0day.ch%3A1337","udp%3A%2F%2Fopen.demonii.com%3A1337","udp%3A%2F%2Ftracker.coppersurfer.tk%3A6969","udp%3A%2F%2Fexodus.desync.com%3A6969"],"infoHash":"9cf4662fe71c7fef72436cf2116fe06058aca0af","infoHashBuffer":{"type":"Buffer","data":[156,244,102,47,231,28,127,239,114,67,108,242,17,111,224,96,88,172,160,175]},"announce":[],"urlList":[]}}